<svg xmlns="http://www.w3.org/2000/svg" xmlns:xlink="http://www.w3.org/1999/xlink" width='40' height='40' zoomAndPan="magnify" preserveAspectRatio="xMidYMid meet" version="1.0" viewBox="35.47 110.01 127.25 160.81"><defs><g/></defs><g fill="#0DEE68" fill-opacity="1"><g transform="translate(53.006716, 270.82173)"><g><path d="M 15.890625 0 L 15.890625 -17.8125 L 38.515625 -17.8125 L 38.515625 -143 L 15.890625 -143 L 15.890625 -160.8125 L 83.78125 -160.8125 L 83.78125 -143 L 61.140625 -143 L 61.140625 -17.8125 L 83.78125 -17.8125 L 83.78125 0 Z M 15.890625 0 "/></g></g></g><g fill="#0DEE68" fill-opacity="1"><g transform="translate(34.612059, 248.772134)"><g><path d="M 111.027344 0 L 128.109375 -17.082031 L 128.109375 -102.484375 L 111.027344 -119.566406 L 0.855469 -119.566406 L 0.855469 -85.40625 L 93.945312 -85.40625 L 93.945312 -34.160156 L 47.828125 -34.160156 L 47.828125 -76.863281 L 13.664062 -76.863281 L 13.664062 0 Z M 27.328125 -13.664062 L 27.328125 -63.199219 L 34.160156 -63.199219 L 34.160156 -20.496094 L 107.609375 -20.496094 L 107.609375 -99.070312 L 14.519531 -99.070312 L 14.519531 -105.902344 L 105.21875 -105.902344 L 114.441406 -96.847656 L 114.441406 -22.886719 L 105.21875 -13.664062 Z M 27.328125 -13.664062 "/></g></g></g></svg>